<svg width="20" height="21" viewBox="0 0 20 21" fill="none" xmlns="http://www.w3.org/2000/svg">
<path d="M5.91658 18.6666H3.46659C3.0334 18.6666 2.61795 18.4945 2.31164 18.1882C2.00533 17.8819 1.83325 17.4664 1.83325 17.0333V11.3166C1.83325 10.8834 2.00533 10.468 2.31164 10.1616C2.61795 9.85534 3.0334 9.68325 3.46659 9.68325H5.91658M11.6333 8.04992V4.78325C11.6333 4.13347 11.3751 3.5103 10.9157 3.05084C10.4562 2.59138 9.83303 2.33325 9.18325 2.33325L5.91658 9.68325V18.6666H15.1286C15.5225 18.671 15.9047 18.533 16.2049 18.2779C16.505 18.0227 16.7029 17.6677 16.7619 17.2783L17.8889 9.92825C17.9244 9.69416 17.9087 9.45514 17.8426 9.22776C17.7766 9.00037 17.662 8.79006 17.5066 8.61139C17.3512 8.43272 17.1589 8.28996 16.9429 8.19301C16.7269 8.09606 16.4923 8.04724 16.2556 8.04992H11.6333Z" stroke="#808080" stroke-linecap="round" stroke-linejoin="round"/>
</svg>
