<svg width="20" height="21" viewBox="0 0 20 21" fill="none" xmlns="http://www.w3.org/2000/svg">
<path d="M14.2833 2.3333H16.4638C16.926 2.32513 17.3751 2.48695 17.7259 2.78804C18.0767 3.08913 18.3047 3.50853 18.3666 3.96664V9.6833C18.3047 10.1414 18.0767 10.5608 17.7259 10.8619C17.3751 11.163 16.926 11.3248 16.4638 11.3166H14.2833M8.56664 12.95V16.2166C8.56664 16.8664 8.82477 17.4896 9.28423 17.949C9.7437 18.4085 10.3669 18.6666 11.0166 18.6666L14.2833 11.3166V2.3333H5.07131C4.67741 2.32885 4.29517 2.46691 3.99502 2.72203C3.69487 2.97716 3.49704 3.33216 3.43798 3.72164L2.31098 11.0716C2.27544 11.3057 2.29123 11.5447 2.35725 11.7721C2.42326 11.9995 2.53793 12.2098 2.69329 12.3885C2.84866 12.5672 3.04101 12.7099 3.25703 12.8069C3.47304 12.9038 3.70755 12.9527 3.94431 12.95H8.56664Z" stroke="#808080" stroke-linecap="round" stroke-linejoin="round"/>
</svg>
